<?xml version="1.0" encoding="UTF-8"?>
<svg width="1559px" height="2165px" viewBox="0 0 1559 2165" version="1.1" xmlns="http://www.w3.org/2000/svg" xmlns:xlink="http://www.w3.org/1999/xlink">
    <title>anki Isotipo</title>
    <g id="Page-1" stroke="none" stroke-width="1" fill="none" fill-rule="evenodd" opacity="0.109943208">
        <g id="writting" transform="translate(-679, 76)" fill="#929598" fill-rule="nonzero">
            <g id="anki-Isotipo" transform="translate(679, -76)">
                <path d="M1117.29461,874.607534 C1124.33622,870.143426 1129.03063,867.167353 1133.72504,864.191281 C1350.84151,730.640032 1467.41937,544.263497 1493.62982,309.897795 C1503.80105,216.151514 1496.75943,122.777242 1485.80581,29.4029705 C1485.80581,26.7989072 1485.41461,24.1948438 1485.0234,20.1027443 C1491.67382,18.242699 1498.32423,16.0106447 1504.97465,13.7785904 C1504.97465,13.0345723 1504.97465,12.2905542 1504.97465,11.5465361 C1490.89142,10.802518 1477.19939,9.68649084 1463.11616,8.94247274 C1409.52164,5.96640033 1355.92713,3.73434602 1301.94141,0.758273616 C1243.26128,-2.58980784 1189.27556,11.174527 1139.98426,38.7031968 C1085.21614,69.207939 1059.78808,116.825098 1048.83446,171.882437 C1036.70723,234.007949 1045.70485,295.389442 1060.17928,356.026917 C1066.0473,381.695542 1060.96169,396.947913 1039.44564,415.548366 C942.427829,499.622411 876.314885,600.436864 850.104429,720.595787 C844.627617,745.148385 845.801219,770.445 843.454014,795.369607 C843.062813,801.321751 843.454014,807.273896 841.49801,812.482023 C837.586002,824.014304 828.197181,830.710466 814.896352,830.710466 C801.595524,830.710466 791.815502,825.50234 787.121092,813.970059 C785.165088,809.505951 784.382686,804.297824 783.991485,799.461706 C783.209084,672.978629 782.035481,546.495551 781.64428,420.012474 C781.64428,401.784031 784.382686,383.183578 787.121092,365.327144 C789.468297,349.702763 797.292314,337.798474 814.505151,329.986284 C852.060433,313.245876 872.011676,280.137071 867.317266,246.656256 C863.014057,215.407496 835.238796,188.250835 798.857118,181.554672 C726.09376,168.534356 678.758457,214.291469 683.061667,261.908627 C685.800073,293.157388 704.968914,315.84994 735.091379,329.242266 C754.260221,337.798474 762.86664,350.818791 763.649041,367.931207 C766.778648,415.176356 770.299456,462.793515 770.299456,510.410674 C770.299456,606.017 767.952251,701.623326 766.387447,797.229652 C766.387447,805.041842 764.040242,813.59805 759.737033,819.922204 C753.086618,829.966448 741.350593,832.942521 728.440965,829.594439 C715.140136,825.874349 707.70732,815.458095 707.316119,800.205724 C706.533717,780.489245 706.533717,760.772765 704.577713,741.056285 C697.144897,677.070728 671.325641,618.665307 637.291167,562.86395 C599.735886,501.482456 553.574186,446.053108 494.502858,399.923985 C486.28764,393.599831 484.722837,387.275678 487.070042,377.975451 C500.370871,316.593958 512.889298,255.212465 505.847682,192.342935 C501.935674,156.258057 491.764452,121.661215 470.248405,90.784464 C435.822731,41.3072602 382.228214,18.9867171 322.374485,5.22238223 C282.471998,-4.07784405 242.178311,1.50229172 201.884624,3.36233697 C143.595697,5.59439128 85.6979717,8.57046369 27.4090453,11.174527 C24.6706394,11.174527 21.5410326,11.5465361 17.2378233,11.9185451 C16.8466224,17.4986809 16.0642207,22.7068076 16.0642207,27.9149343 C7.06660124,303.94565 124.818056,603.784945 362.668172,784.953353 C498.414866,888.371869 667.804834,948.265327 833.673993,1005.92673 C1102.03777,1099.67301 1310.93903,1307.25406 1350.45031,1569.52044 C1373.13996,1721.30013 1343.4087,1864.15161 1256.56211,1996.58683 C1245.21729,2014.07126 1232.30766,2030.43966 1218.61563,2049.41212 C1223.31004,2047.18006 1225.65724,2046.43605 1228.00445,2044.94801 C1457.63935,1900.23649 1574.9996,1704.18772 1556.61316,1449.36152 C1545.65954,1294.97776 1474.85218,1161.79852 1358.27433,1049.45179 C1301.15901,994.02244 1242.08768,939.709118 1168.54192,901.020177 C1152.11148,892.463969 1135.68105,884.27977 1116.51221,874.607534 L1117.29461,874.607534 Z" id="Path"></path>
                <path d="M509.234182,1104.85219 C373.08022,1094.43852 251.402398,1119.35696 151.634409,1206.75746 C71.4287706,1277.42169 27.2178578,1365.1941 7.65550693,1463.00828 C-10.7331028,1555.2437 4.91677782,1644.8757 44.8239735,1730.41662 C144.591963,1943.89698 323.000602,2077.78711 568.703729,2138.40958 C754.154815,2184.15538 936.867171,2170.39445 1113.31958,2100.84596 C1125.44823,2096.01104 1137.57689,2088.20079 1146.57557,2078.90286 C1234.9974,1988.52703 1286.25076,1882.53068 1303.85687,1763.51723 C1321.46299,1644.13187 1303.85687,1529.20951 1249.08229,1419.12207 C1246.34356,1413.91523 1243.60483,1408.7084 1242.82234,1407.22073 C1242.82234,1432.51108 1244.38733,1461.1487 1242.82234,1489.41439 C1231.86742,1672.39756 1092.58348,1825.62737 892.656258,1873.23275 C549.141378,1954.68258 265.878538,1699.91942 299.917028,1411.31181 C305.785734,1360.35918 326.913072,1314.61339 353.909117,1270.35527 C392.251324,1207.50129 444.678424,1156.17674 504.539218,1110.43095 C506.104206,1109.3152 506.8867,1107.82753 509.234182,1105.22411 L509.234182,1104.85219 Z" id="Path"></path>
                <path d="M601.795972,1805.94412 C498.304996,1765.557 413.630562,1687.74697 368.157254,1576.21925 C364.629152,1567.6972 363.061107,1557.69305 363.84513,1548.80048 C365.021164,1531.38585 381.093626,1516.56489 399.910167,1516.93542 C422.646821,1516.93542 444.599452,1519.89961 465.768061,1530.6448 C513.201425,1554.72886 561.810822,1577.70135 611.204243,1598.45069 C628.84475,1605.86117 650.797381,1607.34327 670.789956,1607.34327 C724.4955,1606.60222 774.672943,1591.04021 824.458375,1575.10768 C853.467209,1565.84458 882.868054,1556.952 911.876888,1547.68891 C956.566174,1533.60899 1003.21551,1529.90375 1049.86486,1526.56904 C1061.62519,1525.82799 1073.77754,1527.68061 1085.14587,1530.27428 C1132.97125,1541.01947 1156.09991,1586.96445 1140.81147,1622.53475 C1130.22717,1647.73038 1116.11476,1672.92601 1097.69023,1694.04588 C989.49512,1819.28298 782.513169,1869.67424 601.403961,1806.68516 L601.795972,1805.94412 Z" id="Path"></path>
                <path d="M54.1783075,1261.47746 C140.404562,1141.3765 260.337443,1072.58802 421.423764,1068.49789 C482.957954,1067.01057 542.532457,1076.30631 602.890835,1096.75694 C568.008396,1118.69489 571.143896,1133.9399 586.821397,1155.50602 C598.187585,1171.4947 612.689273,1185.62422 626.407086,1200.49741 C630.326462,1204.95936 635.813587,1208.30583 640.908775,1212.02412 C707.146215,1256.64368 732.622154,1319.11106 739.67703,1390.13051 C743.204467,1425.82616 748.299655,1461.14997 753.78678,1496.47378 C754.570655,1501.30757 760.841656,1508.74416 765.152968,1509.11599 C770.248156,1509.48782 779.262719,1504.65404 780.830469,1500.19208 C788.66922,1481.6006 796.899908,1462.63729 801.21122,1442.93032 C809.833846,1402.40089 814.929033,1361.49963 822.767784,1320.9702 C829.038784,1288.99286 843.93241,1259.61832 865.097036,1232.84658 C873.719661,1222.06352 879.990662,1209.42132 889.397162,1199.38192 C895.668163,1192.68898 894.100412,1188.22703 889.397162,1183.02141 C878.814849,1172.23835 869.016411,1160.71164 856.866348,1151.78773 C766.720719,1082.99925 661.681463,1043.95714 545.27602,1028.34029 C455.914265,1016.44174 369.688011,1026.48114 285.029507,1053.99654 C201.938752,1081.1401 138.052937,1128.36246 91.0204344,1194.91996 C76.5187461,1215.74242 63.9767455,1237.68037 50.6508698,1258.87466 C51.8266824,1259.61832 53.0024949,1260.36198 53.78637,1261.10563 L54.1783075,1261.47746 Z" id="Path"></path>
            </g>
        </g>
    </g>
</svg>