<?xml version="1.0" encoding="UTF-8"?>
<svg width="112px" height="108px" viewBox="0 0 112 108" version="1.1" xmlns="http://www.w3.org/2000/svg" xmlns:xlink="http://www.w3.org/1999/xlink">
    <title>Icon_copy_2</title>
    <g id="Page-1" stroke="none" stroke-width="1" fill="none" fill-rule="evenodd">
        <g id="Succes" transform="translate(-795, -567)" fill="#FFB560">
            <g id="container" transform="translate(556, 524)">
                <path d="M296.977542,113.461192 C295.854702,114.585283 294.331053,115.216895 292.742233,115.216895 C291.153412,115.216895 289.629763,114.585283 288.506923,113.461192 L273.331644,98.2559818 C271.218229,95.885081 271.324307,92.2763607 273.573337,90.0336931 C275.822366,87.7910255 279.431373,87.6951713 281.796277,89.8152941 L292.745226,100.770229 L324.382839,69.1026846 C311.201212,54.0896096 289.265665,50.4456149 271.937969,60.3903955 C254.610274,70.3351762 246.691242,91.1134307 253.004656,110.068338 C259.31807,129.023245 278.114735,140.903157 297.944891,138.47157 C317.775047,136.039983 333.144549,119.970593 334.691253,100.051873 C334.910899,98.5469493 335.022643,97.4893691 335.026486,96.879132 C335.047308,93.5730498 337.706645,90.8928287 341.012789,90.8928287 C343.275372,90.9073897 345.332652,92.207702 346.316654,94.2451585 C346.771613,95.3226931 346.999093,96.2006843 346.999093,96.879132 C347.056448,122.882941 328.571266,145.234115 303.01867,150.057621 C277.466074,154.881127 252.104918,140.806727 242.678754,116.571448 C233.25259,92.3361679 242.439155,64.8246434 264.535666,51.1153202 C286.632178,37.405997 315.36157,41.3933503 332.889376,60.6021338 L340.34831,53.1791177 C342.721302,51.1259385 346.277015,51.2535992 348.496657,53.4716677 C350.716299,55.6897362 350.84648,59.2453582 348.794984,61.6198054 L296.977542,113.461192 Z" id="Icon_copy_2"></path>
            </g>
        </g>
    </g>
</svg>