
<svg width="1200px" height="1667px" viewBox="0 0 1200 1667" version="1.1" xmlns="http://www.w3.org/2000/svg" xmlns:xlink="http://www.w3.org/1999/xlink">
    <g id="Symbols" stroke="none" stroke-width="1" fill="none" fill-rule="evenodd">
        <g id="anki-Isotipo" fill="#000000" fill-rule="nonzero">
            <g id="Group">
                <path d="M860.291044,673.427603 C865.712926,669.990342 869.327513,667.698835 872.9421,665.407328 C1040.11677,562.575951 1129.87902,419.070323 1150.06047,238.614145 C1157.89208,166.431674 1152.47019,94.5356411 1144.03616,22.6396083 C1144.03616,20.6345396 1143.73494,18.629471 1143.43373,15.4786488 C1148.55439,14.0464569 1153.67506,12.3278267 1158.79572,10.6091964 C1158.79572,10.0363196 1158.79572,9.46344289 1158.79572,8.89056613 C1147.95196,8.31768937 1137.40941,7.45837424 1126.56565,6.88549748 C1085.29911,4.59399046 1044.03257,2.87536019 1002.46482,0.583853172 C957.282474,-1.99409223 915.714718,8.60412775 877.76155,29.8005677 C835.591364,53.2885147 816.012349,89.9526271 807.578311,132.345507 C798.240627,180.180716 805.168586,227.443048 816.313564,274.132504 C820.831798,293.896752 816.915995,305.640726 800.349136,319.962644 C725.647663,384.697718 674.742224,462.322518 654.560777,554.842114 C650.343759,573.747047 651.247405,593.224857 649.440112,612.416228 C649.138896,616.999242 649.440112,621.582256 647.934034,625.592394 C644.921877,634.471983 637.692703,639.627874 627.451372,639.627874 C617.210041,639.627874 609.67965,635.617737 606.065063,626.738147 C604.558985,623.300887 603.956553,619.290749 603.655338,615.56705 C603.052906,518.178002 602.14926,420.788953 601.848044,323.399905 C601.848044,309.364424 603.956553,295.042506 606.065063,281.293463 C607.872356,269.263052 613.896669,260.097024 627.150156,254.081818 C656.066855,241.192091 671.428852,215.699075 667.814264,189.919621 C664.500893,165.858797 643.114584,144.948796 615.101531,139.792905 C559.075426,129.767562 522.628336,164.999482 525.941708,201.663594 C528.050217,225.724418 542.809783,243.197159 566.003385,253.508941 C580.762951,260.097024 587.389694,270.122367 587.992126,283.298532 C590.40185,319.676206 593.112791,356.340318 593.112791,393.004431 C593.112791,466.619094 591.305497,540.233757 590.100635,613.84842 C590.100635,619.863626 588.293341,626.451709 584.979969,631.321161 C579.859304,639.054997 570.822835,641.346504 560.88272,638.768559 C550.641389,635.904175 544.918292,627.883901 544.617076,616.139927 C544.014645,600.958693 544.014645,585.777459 542.508567,570.596225 C536.78547,521.328824 516.90524,476.357999 490.699481,433.392242 C461.782781,386.12991 426.239339,343.450591 380.75578,307.932233 C374.430252,303.06278 373.22539,298.193328 375.032683,291.032368 C385.274014,243.770036 394.912914,196.507704 389.491033,148.099618 C386.478877,120.315095 378.647271,93.676326 362.080412,69.9019406 C335.573437,31.8056364 294.306898,14.6193337 248.220908,4.02111371 C217.496915,-3.13984574 186.471706,1.15672993 155.446498,2.58892182 C110.565371,4.30755208 65.985459,6.59905911 21.1043319,8.60412775 C18.9958226,8.60412775 16.5860976,8.89056613 13.2727258,9.17700451 C12.9715102,13.4735802 12.369079,17.4837175 12.369079,21.4938548 C5.44111975,234.031131 96.1070209,464.900464 279.246117,604.395954 C383.767936,684.025823 514.194299,730.142402 641.909721,774.54035 C848.543635,846.722821 1009.39278,1006.55544 1039.81555,1208.49449 C1057.28606,1325.36135 1034.39367,1435.35369 967.523805,1537.32575 C958.788552,1550.78835 948.848436,1563.39164 938.30589,1578 C941.920477,1576.28137 943.727771,1575.70849 945.535064,1574.56274 C1122.34863,1463.13821 1212.71332,1312.18519 1198.55618,1115.9749 C1190.12215,997.10297 1135.60212,894.55803 1045.83987,808.05364 C1001.86239,765.374322 956.378827,723.554319 899.75029,693.764728 C887.099234,687.176645 874.448179,680.875001 859.688613,673.427603 L860.291044,673.427603 Z" id="Path"></path>
                <path d="M392.09856,850.710672 C287.263154,842.692382 193.574041,861.879005 116.754993,929.175371 C54.9985038,983.585199 20.9571219,1051.16793 5.89456354,1126.48259 C-8.26424132,1197.50173 3.78580537,1266.5163 34.5134244,1332.38083 C111.332472,1496.75578 248.703004,1599.84809 437.888737,1646.52599 C580.68179,1681.7492 721.366085,1671.1536 857.230362,1617.60287 C866.569148,1613.8801 875.907934,1607.86638 882.836711,1600.70719 C950.919475,1531.11989 990.383377,1449.50514 1003.93968,1357.86754 C1017.49598,1265.94357 1003.93968,1177.45601 961.764517,1092.69122 C959.655758,1088.68208 957.547,1084.67293 956.944498,1083.52746 C956.944498,1103.00045 958.149503,1125.05075 956.944498,1146.81468 C948.509465,1287.7075 841.26405,1405.69091 687.324703,1442.34596 C422.826179,1505.06044 204.720334,1308.89869 230.929185,1086.6775 C235.447953,1047.44515 251.715516,1012.22195 272.501846,978.144216 C302.024461,929.748106 342.392117,890.229389 388.483546,855.006185 C389.68855,854.147082 390.291053,853.001612 392.09856,850.99704 L392.09856,850.710672 Z" id="Path"></path>
                <path d="M463.369,1390.53526 C383.683339,1359.43812 318.48598,1299.52619 283.472583,1213.65242 C280.756026,1207.09064 279.548668,1199.38768 280.152347,1192.5406 C281.057866,1179.13174 293.433291,1167.71994 307.921593,1168.00524 C325.428291,1168.00524 342.33131,1170.2876 358.63065,1178.56115 C395.153245,1197.10532 432.581358,1214.7936 470.613151,1230.77012 C484.195934,1236.47601 501.098954,1237.61719 516.492775,1237.61719 C557.844803,1237.0466 596.480275,1225.06422 634.813908,1212.79654 C657.15004,1205.66416 679.788012,1198.81709 702.124145,1191.68471 C736.533862,1180.84351 772.452778,1177.99056 808.371693,1175.4229 C817.426882,1174.85231 826.78391,1176.27879 835.537259,1178.27585 C872.361694,1186.54941 890.170232,1221.92597 878.398486,1249.31428 C870.248816,1268.71434 859.38259,1288.11439 845.196127,1304.3762 C761.888391,1400.80588 602.517068,1439.60599 463.067161,1391.10585 L463.369,1390.53526 Z" id="Path"></path>
                <path d="M41.7160455,971.308514 C108.10827,878.833543 200.453819,825.868002 324.486565,822.718699 C371.866471,821.573498 417.737462,828.731004 464.21202,844.477516 C437.353347,861.369229 439.76761,873.107538 451.838923,889.712951 C460.590625,902.02386 471.756591,912.903269 482.31899,924.355278 C485.336818,927.79088 489.561778,930.367582 493.484955,933.230584 C544.486255,967.586611 564.102139,1015.68505 569.53423,1070.36839 C572.250276,1097.85321 576.173453,1125.05173 580.398412,1152.25025 C581.001978,1155.97216 585.830503,1161.69816 589.150115,1161.98446 C593.073292,1162.27076 600.014297,1158.54886 601.221428,1155.11326 C607.257085,1140.79824 613.594525,1126.19693 616.914136,1111.02302 C623.553358,1079.8163 627.476535,1048.32327 633.512192,1017.11655 C638.340717,992.49473 649.808465,969.877013 666.104739,949.263397 C672.743961,940.96069 677.572486,931.226483 684.815275,923.496377 C689.6438,918.342973 688.436669,914.90737 684.815275,910.899167 C676.667138,902.596461 669.122567,893.721154 659.767299,886.849949 C590.357246,833.884408 509.479445,803.822885 419.849942,791.798275 C351.043455,782.636668 284.651231,790.366774 219.466137,811.552991 C155.488176,832.452907 106.297573,868.813035 70.0836324,920.060774 C58.9176673,936.093587 49.2606165,952.9853 39,969.304412 C39.9053485,969.877013 40.810697,970.449613 41.4142627,971.022214 L41.7160455,971.308514 Z" id="Path"></path>
            </g>
        </g>
    </g>
</svg>