<?xml version="1.0" encoding="UTF-8"?>
<svg width="50px" height="50px" viewBox="0 0 50 50" version="1.1" xmlns="http://www.w3.org/2000/svg" xmlns:xlink="http://www.w3.org/1999/xlink">
    <title>Shape</title>
    <g id="Page-1" stroke="none" stroke-width="1" fill="none" fill-rule="evenodd">
        <g id="Succes" transform="translate(-667, -958)" fill="#C0C0C0" fill-rule="nonzero">
            <g id="newen-iso" transform="translate(667, 958)">
                <path d="M49.8158823,22.8387853 C49.1610265,18.0420842 47.060031,13.3821712 43.7402761,9.80744339 C40.4841877,6.29655002 35.9365783,3.55166974 31.2343501,2.43912691 C30.524923,2.27498124 29.7973055,2.14731239 29.069688,2.06523956 C28.7331649,2.02876275 28.4239275,2.04700115 28.1328805,1.87373629 C27.8418335,1.69135222 27.5689769,1.46337213 27.2961203,1.25363044 C26.2228845,0.442021327 25.2406009,-0.479018233 23.8308419,0.286994867 C23.2578432,0.597047788 22.7303205,1.1442 22.2027978,1.54544496 C22.002703,1.70047142 21.8026081,1.9010939 21.5570372,1.99228593 C21.2477998,2.11083558 20.8203245,2.09259717 20.4838014,2.13819319 C19.1104233,2.31145806 17.7552357,2.6762262 16.4455242,3.12306717 C10.2789658,5.24784161 4.91278667,9.86215861 2.13874491,15.8078793 C-2.19967449,25.1185862 0.283320261,35.8336504 7.58678102,42.8280795 C11.5977726,46.6672642 16.7456664,49.2479988 22.2846547,49.8589854 C31.8892059,50.9168131 41.3209479,45.9377279 46.4051752,37.7942791 C49.2065026,33.307631 50.5253094,28.1005657 49.8067871,22.8479045 L49.8158823,22.8387853 Z M23.3669858,2.88596788 C23.7398898,2.52119974 24.3128885,1.83725947 24.8586017,1.77342505 C25.4679813,1.70959062 26.0409801,2.45736531 26.4411698,2.83125266 C27.3506917,3.67933859 28.2056422,4.60949736 28.9150693,5.63084816 C29.6699725,6.71603338 30.2793521,7.91064905 30.524923,9.20557595 C30.770494,10.4549068 30.2156856,11.7042377 29.4789729,12.7073501 C28.8695932,13.5463168 28.0601187,14.2120187 27.114216,14.6406213 C26.0500754,15.1239391 25.0132204,15.3336807 23.876318,15.032747 C21.5388468,14.403522 19.3196134,12.3152244 19.2923277,9.80744339 C19.3378038,7.14463595 21.5206564,4.65509337 23.3487953,2.88596788 L23.3669858,2.88596788 Z M32.062015,9.40619843 C32.598633,8.71313896 34.7087237,11.3850656 35.0270564,11.7407145 C35.9638639,12.8076614 37.0280045,13.8563698 37.7738125,15.0692238 C39.2563332,17.494932 37.6646699,20.2398123 35.9274831,22.1001298 C35.0725325,23.0120501 34.0629632,23.9148513 32.725966,23.4680103 C31.5163019,23.0576462 30.4339709,22.1366066 29.4971633,21.3158783 C28.5330701,20.4769116 27.6690243,19.5193952 26.950502,18.4706868 C26.8140737,18.2791835 26.5503124,17.987369 26.4957411,17.7593889 C26.4229793,17.4310976 26.6230741,17.3672631 26.8777403,17.1575215 C27.3779773,16.7289189 27.8873096,16.37327 28.4421179,16.017621 C29.6335916,15.2516079 30.897827,14.1117075 31.7527776,12.9900454 C32.1529672,12.4702508 32.4803951,11.8319066 32.7168708,11.2209199 C33.0079178,10.464026 32.516776,9.99894666 32.0802055,9.41531763 L32.062015,9.40619843 Z M42.9217064,26.1308178 C43.0035634,25.6110232 43.5128956,26.1125794 43.7129904,26.322321 C44.2950844,26.9059501 44.5861314,27.7631552 44.4406079,28.5747643 C44.358751,29.0216053 44.1404657,29.4319695 43.9585613,29.8423336 C43.7129904,30.4168434 43.4947052,31.0095917 43.2673247,31.5932207 C43.0763251,32.0947769 42.8398494,32.5963331 42.6852307,33.1161277 C42.5397072,33.6359223 42.6215642,34.1648361 42.6215642,34.7028691 C41.6119949,34.876134 40.5933303,35.012922 39.5928563,35.2500213 C38.5923822,35.4871206 37.6191938,35.8336504 36.6278149,36.0707497 C35.7637691,36.2713721 34.9815803,35.7424583 34.2539628,35.3412134 C33.8810588,35.1314717 33.4990596,34.9308492 33.1079652,34.7484651 C32.7077756,34.5569619 32.1802529,34.4475314 31.8255393,34.2104321 C32.807823,33.6268031 33.9174397,33.2073197 34.9361042,32.6784059 C35.9729592,32.1403729 36.9916237,31.5749823 38.0102882,30.9913533 C39.0107623,30.4168434 40.0203316,29.8423336 41.0026152,29.2222278 C41.7484231,28.7480292 42.6670403,28.1735194 42.9217064,27.2798374 C43.030849,26.8877117 42.8762303,26.5229435 42.9308016,26.1490562 L42.9217064,26.1308178 Z M7.19568661,33.1526045 C7.05925833,32.6419291 6.81368742,32.1312537 6.62268782,31.6388167 C6.24068863,30.6539427 5.67678506,29.6143535 5.44940459,28.5747643 C5.28569065,27.8087512 5.56764243,26.9880229 6.08606991,26.4043939 C6.26797429,26.1946522 6.74092567,25.6657384 6.95921092,26.0122681 C7.01378223,26.094341 6.92283005,26.4043939 6.92283005,26.4773475 C6.90463961,26.7144468 6.90463961,26.9606653 6.96830614,27.1977646 C7.21387705,28.1644002 8.22344635,28.784506 9.03292083,29.2587046 C9.97882359,29.814976 10.9247264,30.3712474 11.8706291,30.9183996 C12.8892936,31.5020287 13.9079581,32.0947769 14.9539083,32.6419291 C15.9725728,33.1708429 17.0821895,33.5994455 18.0644732,34.1921937 C17.7006644,34.4384122 17.1731417,34.5478427 16.7638569,34.7393459 C16.3727625,34.92173 15.9998585,35.1223525 15.6269545,35.3320942 C14.8720513,35.7606967 14.0989577,36.2987297 13.1985311,36.0342728 C11.2339638,35.4415246 9.30577739,35.0311604 7.27754358,34.7119883 C7.27754358,34.2013129 7.33211489,33.6541607 7.19568661,33.1526045 L7.19568661,33.1526045 Z M24.8767921,31.8394392 C24.4675073,31.7573664 24.1764603,30.891042 24.0127463,30.5627507 C23.4397475,29.4228503 22.7757966,28.337665 21.8480842,27.4348639 C21.3842281,26.9880229 20.8930862,26.5685395 20.3746588,26.1946522 C19.9926596,25.9210761 19.1740899,25.6292616 19.3196134,25.0456325 C19.3014229,25.0456325 19.2832325,25.0456325 19.2559469,25.0456325 C19.5560891,23.8236593 20.0836118,22.9664541 21.0568002,22.1366066 C22.0117982,21.3341167 22.9667962,20.540746 23.9308894,19.7473753 C24.2765077,19.46468 24.7130782,19.0451966 25.1951248,19.2275807 C25.7499331,19.4373224 26.3047415,20.0209514 26.7595024,20.3857195 C27.6872148,21.1152558 28.7149745,21.8812689 29.4971633,22.7567124 C30.024686,23.3494607 31.1070171,24.8723677 30.3521139,25.6110232 C29.9701147,25.9849105 29.3971159,26.2584866 28.9696406,26.5958971 C28.5057845,26.9697845 28.0601187,27.3710295 27.6508339,27.8178704 C26.823169,28.7206716 26.286551,29.76938 25.7226475,30.8363268 C25.577124,31.1190221 25.2769818,31.921512 24.8586017,31.83032 L24.8767921,31.8394392 Z M27.0778351,33.89126 C27.7781669,34.2469089 28.5239749,34.5113658 29.2879733,34.7119883 C30.7977796,35.1132333 32.6895851,35.1497101 33.7719162,36.4172794 C32.225729,37.0100276 30.5794944,37.3200805 29.0424024,37.9493056 C28.3329753,38.2411201 27.6599291,38.5785306 27.0141686,38.9888948 C26.3956937,39.3810205 25.6316953,40.07408 24.8495065,40.0102456 C24.1036985,39.9464112 23.4488428,39.3445437 22.8485583,38.9615372 C22.1937025,38.551173 21.4933707,38.2046433 20.7657532,37.921948 C19.2559469,37.3109613 17.6369979,37.0373852 16.1362868,36.4172794 C17.2095226,35.1405909 19.137709,35.1041141 20.6566106,34.7028691 C21.4751803,34.4931274 22.2664643,34.1921937 23.0122722,33.800068 C23.6307471,33.4717766 24.3583646,32.6784059 25.1041726,32.7787172 C25.786314,32.8699092 26.4775506,33.5903263 27.0960255,33.9003792 L27.0778351,33.89126 Z M19.7652791,26.8329964 C20.7020867,27.4986983 21.5388468,28.3285458 22.2482739,29.2131086 C22.6120826,29.6690687 22.9849866,30.1523865 23.2487479,30.6813003 C23.4397475,31.0734261 23.8581276,32.0765385 23.6580328,32.5233795 C23.5125093,32.8516708 22.6848444,33.1070085 22.3574165,33.2711542 C21.7844177,33.5629687 21.175038,33.800068 20.5565632,33.982452 C19.8562313,34.1830745 19.5288034,33.8547832 18.8921381,33.5629687 C18.264568,33.2711542 17.600617,33.0431741 16.9730469,32.769598 C15.7633828,32.2498034 14.5900996,31.6752935 13.4168163,31.0825453 C12.7255797,30.7360156 12.198057,30.5445123 11.8433435,29.8332144 C11.5250108,29.2039894 11.2521542,28.5382875 11.0429642,27.8634664 C10.5882033,26.4408707 10.4062989,24.9817981 10.2243945,23.5044871 C10.3062515,22.8752621 10.2425849,21.8539113 10.6336793,21.3432359 C11.033869,21.6441696 11.324916,22.0818914 11.6796295,22.4284211 C12.1162,22.8570237 12.5800562,23.2491494 13.0893884,23.5956792 C14.0716721,24.2705002 15.1812888,24.6352684 16.2727151,25.0821094 C17.4732839,25.5745463 18.7193289,26.0578641 19.7743743,26.814758 L19.7652791,26.8329964 Z M11.4158682,36.5084714 C12.6528179,36.8367628 13.8806725,37.1559349 15.1267175,37.4477494 C17.5096648,38.01314 20.2291353,38.414385 22.3119404,39.7731463 C22.7848918,40.0831992 23.1214149,40.3658945 22.6666539,40.8400931 C22.2846547,41.2322189 21.8117034,41.4237221 21.2841807,41.5240334 C20.1654687,41.7428943 19.1468042,42.0164704 18.1554254,42.6000994 C17.7188549,42.8554371 17.3368557,43.2566821 16.8911899,43.4846621 C16.4819051,43.703523 16.1635724,43.3934701 15.7815732,43.2019668 C14.7083374,42.6639338 13.735149,42.1532584 12.8165319,41.3598877 C11.8888196,40.5573978 10.7882981,40.0011264 9.8878714,39.1439213 C9.46039611,38.7335571 9.05111126,38.2958353 8.68730251,37.8398751 C8.32349375,37.383915 7.83235193,36.8367628 7.67773321,36.2713721 C8.95106386,35.9886768 10.1789184,36.1710609 11.4158682,36.490233 L11.4158682,36.5084714 Z M18.9739951,43.2749205 C19.9198978,42.581861 20.965848,42.4997882 22.0572743,42.2353313 C23.0941292,41.9799936 23.9308894,41.3325301 24.9313634,40.9951196 C25.8499805,41.2869341 26.6230741,41.8705631 27.5689769,42.1441392 C28.4603084,42.3994769 29.3971159,42.4359537 30.2429713,42.8554371 C30.6158752,43.0469404 31.0160649,43.3022781 31.2889214,43.6214502 C31.4526354,43.8129535 31.8710154,44.3692249 31.6072541,44.5789666 C31.5344923,44.6336818 31.2070645,44.6245626 31.0888266,44.6519202 C30.8432557,44.7157546 30.60678,44.8069467 30.3703043,44.8799003 C29.8700673,45.0258076 29.360735,45.1625956 28.8423076,45.272026 C26.7504072,45.7371054 24.6130308,45.8556551 22.4938448,45.5456022 C21.4206089,45.3905757 20.3655636,45.1261188 19.3287086,44.8251851 C19.0376616,44.7431122 18.2827584,44.7248738 18.1918062,44.3965825 C18.0826636,44.0044568 18.7102337,43.4664237 18.9739951,43.2749205 Z M29.2970685,41.6517022 C28.8241171,41.551391 28.3238801,41.5331526 27.8782144,41.3234109 C27.5053104,41.150146 26.8049785,40.7033051 27.0141686,40.2291065 C27.2051682,39.8096231 28.0328331,39.5086894 28.4239275,39.3263053 C28.9787358,39.0618484 29.5517346,38.8338683 30.1338286,38.6423651 C31.2889214,38.2502393 32.4803951,38.01314 33.6627736,37.7486831 C35.1271038,37.4203918 36.5823388,37.0373852 38.0284786,36.6270211 C38.71062,36.4355178 39.3836662,36.2804913 40.0839981,36.1984185 C40.8207108,36.1163457 41.4664714,36.1801801 42.2031841,36.2531337 C41.948518,37.1832925 41.0208056,38.1134512 40.3568547,38.7973915 C39.6110467,39.5634046 38.7742866,40.2291065 37.8647647,40.8036163 C36.9006715,41.4054837 36.1184827,42.2170929 35.0907229,42.7368875 C34.5813907,42.9922252 34.0720584,43.2931589 33.5445357,43.5120198 C33.0079178,43.7399998 32.6804899,43.2475629 32.2530146,42.9466291 C31.3616832,42.3356425 30.3612091,41.8796823 29.2970685,41.642583 L29.2970685,41.6517022 Z M37.8010982,30.2982938 C37.7374316,30.4077242 37.6191938,30.5080355 37.5009559,30.5718699 C35.5727695,31.5476247 33.6536783,32.5233795 31.6345397,33.2985118 C31.061541,33.5173727 30.5158278,33.8274256 29.9519243,34.0918825 C29.8882577,34.1192401 29.7791151,34.1101209 29.7063533,34.0918825 C28.8150219,33.8730216 27.9782618,33.5447303 27.1778825,33.0978893 C26.9232164,32.9611012 26.659455,32.815194 26.3956937,32.7057635 C26.2501702,32.6419291 26.2046941,32.5598563 26.2137893,32.4048298 C26.2592654,31.6205783 26.4684554,30.8819228 26.8959307,30.2071018 C27.987357,28.4835723 29.4516872,27.0974533 31.2616358,26.1490562 C32.4622047,25.5198311 33.7537257,25.0456325 35.0179612,24.5531956 C35.6546265,24.2978579 36.2640062,23.9969241 36.8097193,23.5956792 C37.6646699,22.9755733 38.4741443,22.3098715 39.0926192,21.4526663 C39.1290001,21.4070703 39.2199523,21.3523551 39.2563332,21.3705935 C39.3109045,21.3979511 39.3836662,21.4709047 39.3927615,21.5347392 C39.4837136,22.200441 39.5746658,22.8570237 39.6383324,23.3676991 C39.4837136,25.9119569 38.9470957,28.1826386 37.7920029,30.2982938 L37.8010982,30.2982938 Z M20.6475153,15.433992 C21.1659428,15.8443561 21.7389416,16.1544091 22.2755595,16.5374156 C22.6393683,16.8018725 23.5306997,17.2760711 23.4306523,17.7685081 C23.3215097,18.2700643 22.6666539,18.926647 22.3574165,19.3278919 C21.9663221,19.8112097 21.547942,20.2762891 21.1022763,20.7140108 C20.2109448,21.5894544 19.1922803,22.4375403 18.1008541,23.0667654 C16.8548091,23.7780632 15.8088589,23.7871825 14.7083374,22.8296661 C13.0257219,21.3614743 11.0156785,18.6804285 11.5886773,16.3459123 C11.9706765,14.7956477 13.2985785,13.6283897 14.317243,12.4520124 C14.8811466,11.7954298 15.4450501,11.1479663 16.0180489,10.5005029 C16.5000955,9.95335064 17.0458087,9.35148321 17.809807,9.30588719 C17.8189023,9.34236401 17.8370927,9.37884082 17.8461879,9.40619843 C17.4914744,9.87127781 16.9548565,10.3637148 17.1185704,11.0020591 C17.2731891,11.6130457 17.764331,12.2696283 18.0735684,12.8258998 C18.3555202,13.3365752 18.8102811,13.6831049 19.219566,14.1025883 C19.6743269,14.5676676 20.1381831,15.032747 20.6475153,15.4431112 L20.6475153,15.433992 Z M24.8858873,48.0442639 C12.1434857,48.0442639 1.77493616,37.9766632 1.77493616,25.6110232 C1.77493616,15.1512967 9.19663477,6.34214603 19.2013755,3.87084187 C18.846662,4.36327886 18.5283293,4.89219267 18.2372823,5.43022568 C9.43311046,8.16598675 3.03007636,16.1817667 3.03007636,25.6110232 C3.03007636,37.2927229 12.8347223,46.794933 24.8858873,46.794933 C36.9370524,46.794933 46.7416983,37.2927229 46.7416983,25.6110232 C46.7416983,16.1817667 40.3568547,8.17510595 31.5526828,5.43934488 C31.2889214,4.93778868 30.9887792,4.42711328 30.6340657,3.90731868 C30.6340657,3.89819948 30.6158752,3.88908027 30.6158752,3.87996107 C30.7613987,4.08970275 31.9073963,4.23561001 32.1802529,4.32680205 C32.7896325,4.51830532 33.3808218,4.74628541 33.972011,4.9833847 C35.0907229,5.44846408 36.1639588,5.9956163 37.2008137,6.63396055 C39.2290475,7.88329144 41.075377,9.44267524 42.6306594,11.2482776 C45.9504143,15.0965815 47.8240294,20.002713 47.9604576,25.0912286 C48.015029,27.0244997 47.8149341,28.9577709 47.3601732,30.8363268 C44.9590354,40.7124243 35.7455787,47.6794958 25.7317427,48.0351447 C25.4497909,48.0442639 25.1678391,48.0533831 24.8858873,48.0533831 L24.8858873,48.0442639 Z" id="Shape"></path>
            </g>
        </g>
    </g>
</svg>